Coordinates
version=1
nRows=5
nColumns=40
inDegrees=yes

Units are S.I. units (second, meters, Newtons, ...)
Angles are in degrees.

endheader
time	pelvis_tilt	pelvis_list	pelvis_rotation	pelvis_tx	pelvis_ty	pelvis_tz	hip_flexion_r	hip_adduction_r	hip_rotation_r	knee_angle_r	knee_angle_r_beta	ankle_angle_r	subtalar_angle_r	mtp_angle_r	hip_flexion_l	hip_adduction_l	hip_rotation_l	knee_angle_l	knee_angle_l_beta	ankle_angle_l	subtalar_angle_l	mtp_angle_l	lumbar_extension	lumbar_bending	lumbar_rotation	arm_flex_r	arm_add_r	arm_rot_r	elbow_flex_r	pro_sup_r	wrist_flex_r	wrist_dev_r	arm_flex_l	arm_add_l	arm_rot_l	elbow_flex_l	pro_sup_l	wrist_flex_l	wrist_dev_l
     40.34200000	     -4.86336587	     -5.26332856	    -11.43178840	      1.09732765	      0.93171659	      0.40054465	     23.28108143	     -3.05412196	     -5.19400724	     16.74439478	     16.74439478	      5.00555132	      9.89173588	      4.38796337	      7.42375017	     -4.25402699	    -16.44094959	     17.87385383	     17.87385383	     16.03251284	    -12.25119791	     -1.53485741	     -8.96446517	      5.54340920	      1.14201886	    -18.37688148	    -11.87681152	     -7.32687046	     30.11694445	     46.26877153	      0.00000000	      0.00000000	     34.48724561	    -18.26580341	    -11.57067909	     73.82150993	     48.31108301	      0.00000000	      0.00000000
     40.36400000	     -4.57704963	     -4.91089657	    -11.60123933	      1.09823719	      0.93115666	      0.40276218	     22.36812672	     -3.18222201	     -6.05280463	     14.92976098	     14.92976098	      5.51354877	     12.18973748	      7.25789352	      6.33130708	     -3.81793974	    -16.97960460	     17.01925160	     17.01925160	     15.62159904	    -11.88391817	     -3.24397380	     -8.98051113	      5.27576468	      0.83304831	    -17.85256429	    -11.79986165	     -7.03732472	     29.52426339	     46.26478554	      0.00000000	      0.00000000	     34.06210513	    -18.12457115	    -13.25114650	     76.06631485	     48.42926584	      0.00000000	      0.00000000
     40.38600000	     -4.57594122	     -4.37326963	    -11.73329606	      1.09911027	      0.92996605	      0.40525823	     22.01708036	     -3.33842048	     -6.08168307	     13.87719400	     13.87719400	      5.34009515	     12.85357403	      7.52308177	      5.86082751	     -3.29980898	    -17.27088905	     16.73173099	     16.73173099	     15.85456124	    -11.67910504	     -3.42483565	     -8.58067120	      4.84030308	      0.97492143	    -17.83229439	    -11.63114099	     -6.98684536	     29.49951502	     46.26136530	      0.00000000	      0.00000000	     34.38281520	    -18.04091369	    -13.36522227	     76.48739256	     48.44470615	      0.00000000	      0.00000000
     40.40800000	     -4.27189242	     -4.07671279	    -11.77378259	      1.10082792	      0.92958923	      0.40784711	     21.12678107	     -3.40282648	     -6.48220524	     13.03824131	     13.03824131	      5.15873265	     13.87958101	      7.48135805	      4.61167253	     -2.87407407	    -17.61640110	     15.72709515	     15.72709515	     15.94836002	    -10.94255846	     -3.68079820	     -8.57263565	      4.72341803	      1.29790653	    -17.87662446	    -11.59816031	     -6.93513394	     29.34260635	     46.26259712	      0.00000000	      0.00000000	     34.32587616	    -17.52689619	    -13.75903069	     77.42430622	     48.48300923	      0.00000000	      0.00000000
     40.43000000	     -4.10608160	     -3.67745756	    -11.71178300	      1.10260129	      0.92883590	      0.41057158	     20.65374261	     -3.58613895	     -6.59097364	     12.90385524	     12.90385524	      4.29585765	     14.12417384	      4.66624795	      3.65273551	     -2.39298596	    -17.73368406	     14.89461608	     14.89461608	     15.57162977	    -10.77679942	     -5.04094901	     -8.37868815	      4.42974210	      0.67830212	    -17.29850084	    -11.82835108	     -6.61051184	     28.71920801	     46.26121496	      0.00000000	      0.00000000	     33.41102808	    -17.39600604	    -15.57267924	     79.49838530	     48.59368580	      0.00000000	      0.00000000
